# xmcd
#
# Track frame offsets:
#	150
#	11757
#	27730
#	40955
#	55415
#	72114
#	83284
#	92652
#	105685
#	125544
#	140034
#	155410
#
# Disc length: 2195 seconds
#
# Revision: 0
# Processed by: cddbd v1.5PL3 Copyright (c) Steve Scherf et al.
# Submitted via: dBpowerAMP V4.0
#
DISCID=9f08910c
DTITLE=Grey de Isle - The Graceful GHost
DYEAR=2004
DGENRE=Country
TTITLE0=The Jewel Of Abilene
TTITLE1=Sweet Savior's Arms
TTITLE2=Shareccroppin'man
TTITLE3=Walking In A Lane
TTITLE4=The Marple Tree
TTITLE5=Tell Me True
TTITLE6=Turtle Dove
TTITLE7=Black Haired Boy
TTITLE8=Katy Allen
TTITLE9=This White Circle On My Finger
TTITLE10=Sawyer
TTITLE11=Pretty Little Dreamer
EXTD=
EXTT0=
EXTT1=
EXTT2=
EXTT3=
EXTT4=
EXTT5=
EXTT6=
EXTT7=
EXTT8=
EXTT9=
EXTT10=
EXTT11=
PLAYORDER=
